# xmcd
#
# Track frame offsets: 
#        150
#        7503
#        22722
#        31885
#        48454
#        59433
#        77141
#        87240
#        105044
#
# Disc length: 1554 seconds
#
# Revision: 0
# Processed by: cddbd v1.5.2PL0 Copyright (c) Steve Scherf et al.
# Submitted via: ExactAudioCopy v0.99pb4
#
DISCID=50061009
DTITLE=DJ Insane - 12 O' Clock Insane Time
DYEAR=2011
DGENRE=Gangsta Rap
TTITLE0=Intro
TTITLE1=Powder
TTITLE2=Grave Digger
TTITLE3=Ball Of Bay
TTITLE4=A Pimp
TTITLE5=Hatin' Ass Niggas
TTITLE6=Niggaz Down 2 Make Sum Endz
TTITLE7=Hatin'-No Reason Feat Lil Awree
TTITLE8=On Dat Triple 6 Feat Juicy J
EXTD=
EXTT0=
EXTT1=
EXTT2=
EXTT3=
EXTT4=
EXTT5=
EXTT6=
EXTT7=
EXTT8=
PLAYORDER=
